<?xml version="1.0" encoding="UTF-8"?>
<svg id="Layer_1" data-name="Layer 1" xmlns="http://www.w3.org/2000/svg" viewBox="0 0 373.04 62.88">
  <defs>
    <style>
      .cls-1 {
        fill: #ffcb05;
      }

      .cls-2 {
        fill: #ed1c24;
      }

      .cls-3 {
        fill: #00939b;
      }

      .cls-4 {
        fill: #05939a;
      }
    </style>
  </defs>
  <rect class="cls-4" x="76.69" width="2.09" height="62.84"/>
  <g>
    <path class="cls-3" d="M122.24,30.33c-.93,1.99-2.21,3.65-3.84,4.99-1.63,1.34-3.53,2.34-5.71,3.01-2.18.67-4.51,1-7.01,1h-7.42v13.61h-9.77V7.57h18.14c2.66,0,5.04.38,7.14,1.13,2.09.76,3.87,1.83,5.33,3.21,1.46,1.38,2.58,3.04,3.36,4.96.78,1.92,1.17,4.05,1.17,6.39v.13c0,2.64-.47,4.95-1.4,6.94ZM113.74,23.46c0-2.25-.71-3.95-2.12-5.12-1.42-1.17-3.35-1.75-5.8-1.75h-7.55v13.87h7.74c2.45,0,4.36-.66,5.71-1.98,1.35-1.32,2.03-2.95,2.03-4.89v-.13Z"/>
    <path class="cls-3" d="M172.41,39.37c-1.18,2.83-2.82,5.32-4.92,7.46-2.09,2.14-4.59,3.83-7.49,5.06-2.9,1.23-6.06,1.85-9.48,1.85s-6.58-.62-9.45-1.85c-2.88-1.23-5.36-2.9-7.45-4.99-2.09-2.1-3.72-4.56-4.88-7.39-1.16-2.83-1.74-5.87-1.74-9.11v-.13c0-3.24.59-6.28,1.78-9.11,1.18-2.83,2.82-5.32,4.92-7.46,2.09-2.14,4.59-3.83,7.49-5.06,2.9-1.23,6.06-1.85,9.48-1.85s6.58.62,9.45,1.85c2.88,1.23,5.36,2.9,7.45,4.99,2.09,2.1,3.72,4.56,4.88,7.39,1.16,2.83,1.74,5.87,1.74,9.11v.13c0,3.24-.59,6.28-1.78,9.11ZM163.97,30.26c0-1.94-.33-3.78-.98-5.51-.66-1.73-1.59-3.24-2.79-4.54-1.21-1.3-2.63-2.32-4.28-3.08-1.65-.76-3.45-1.13-5.39-1.13s-3.8.37-5.42,1.1c-1.63.74-3.02,1.75-4.19,3.05-1.16,1.3-2.07,2.8-2.73,4.51-.66,1.71-.98,3.53-.98,5.48v.13c0,1.94.33,3.78.98,5.51.66,1.73,1.59,3.24,2.79,4.54s2.62,2.32,4.25,3.08c1.63.76,3.43,1.13,5.42,1.13s3.74-.37,5.39-1.1c1.65-.73,3.05-1.75,4.22-3.05,1.16-1.3,2.07-2.8,2.73-4.51.66-1.71.98-3.53.98-5.48v-.13Z"/>
    <path class="cls-3" d="M177.8,52.95V7.57h9.77v36.37h22.14v9.01h-31.91Z"/>
    <path class="cls-3" d="M226.64,34.87v18.09h-9.77v-17.89l-17.06-27.49h11.42l10.59,18.22,10.78-18.22h11.1l-17.06,27.29Z"/>
    <path class="cls-3" d="M279.48,52.95v-29.63l-12.5,19.38h-.25l-12.37-19.19v29.43h-9.64V7.57h10.53l11.67,19.19,11.67-19.19h10.53v45.38h-9.64Z"/>
    <path class="cls-3" d="M294.7,52.95V7.57h33.43v8.88h-23.79v9.21h20.93v8.88h-20.93v9.53h24.1v8.88h-33.75Z"/>
    <path class="cls-3" d="M371.33,39.21c-1.14,2.77-2.76,5.17-4.85,7.2-2.09,2.03-4.59,3.63-7.49,4.8-2.9,1.17-6.08,1.75-9.55,1.75h-17.32V7.57h17.32c3.47,0,6.65.57,9.55,1.72,2.9,1.15,5.39,2.73,7.49,4.77,2.09,2.03,3.71,4.42,4.85,7.16,1.14,2.75,1.71,5.72,1.71,8.91v.13c0,3.2-.57,6.18-1.71,8.95ZM362.83,30.26c0-1.99-.33-3.82-.98-5.51-.66-1.69-1.57-3.13-2.73-4.34-1.16-1.21-2.57-2.15-4.22-2.82-1.65-.67-3.47-1-5.46-1h-7.55v27.36h7.55c1.99,0,3.81-.32,5.46-.97,1.65-.65,3.05-1.58,4.22-2.79,1.16-1.21,2.07-2.64,2.73-4.28.66-1.64.98-3.48.98-5.51v-.13Z"/>
  </g>
  <g>
    <rect class="cls-1" x="15.81" y="0" width="12.23" height="16.99"/>
    <rect class="cls-3" x="2.54" y="14.45" width="10.73" height="15.81" transform="translate(-14.45 30.26) rotate(-90)"/>
    <path class="cls-3" d="M43.23,0h-4.3v16.99h12.37v10.73h-12.37v17.17h4.3c13.95,0,23.59-9.92,23.59-22.69v-.13C66.83,9.29,57.19,0,43.23,0Z"/>
    <polygon class="cls-2" points="28.03 52.85 15.81 62.88 15.81 27.71 28.03 27.71 28.03 52.85"/>
  </g>
</svg>